<?xml version="1.0" encoding="UTF-8"?>
<svg width="150px" height="150px" viewBox="0 0 150 150" version="1.1" xmlns="http://www.w3.org/2000/svg" xmlns:xlink="http://www.w3.org/1999/xlink">
    <!-- Generator: Sketch 49 (51002) - http://www.bohemiancoding.com/sketch -->
    <title>Benefit2</title>
    <desc>Created with Sketch.</desc>
    <defs></defs>
    <g id="Landing-Page-2" stroke="none" stroke-width="1" fill="none" fill-rule="evenodd">
        <g id="Benefit2">
            <circle id="Oval-Copy" fill="#2CD55E" cx="75.5" cy="75.5" r="69.5"></circle>
            <path d="M97.7096089,53.2903911 C98.4712486,54.0520308 98.4712486,55.2888816 97.7096089,56.0537761 L86.724421,67.0389641 L91.1184962,67.0389641 C92.1958583,67.0389641 93.0681636,67.9112694 93.0681636,68.9918864 C93.0681636,70.0692485 92.1958583,70.9448087 91.1184962,70.9448087 L82.0113685,70.9448087 C80.9340063,70.9448087 80.0584462,70.0692485 80.0584462,68.9918864 L80.0584462,59.8815038 C80.0584462,58.8041417 80.9340063,57.9285815 82.0113685,57.9285815 C83.0887306,57.9285815 83.9610359,58.8041417 83.9610359,59.8815038 L83.9610359,64.2788339 L94.9494787,53.2903911 C95.7143733,52.5287514 96.9479692,52.5287514 97.7096089,53.2903911 Z M106.09741,101.540592 C106.09741,104.050097 104.050097,106.09741 101.540592,106.09741 L76.0972687,106.09741 C76.9467899,104.779188 77.4512949,103.220105 77.4512949,101.540592 L77.4512949,82.0113685 C77.4512949,77.3438841 73.6561159,73.5487051 68.9918864,73.5487051 L49.4626633,73.5487051 C47.7798953,73.5487051 46.2208123,74.0532101 44.9025897,74.9027313 L44.9025897,49.4626633 C44.9025897,46.9499033 46.9499033,44.9058446 49.4626633,44.9058446 L101.540592,44.9058446 C104.050097,44.9058446 106.09741,46.9499033 106.09741,49.4626633 L106.09741,101.540592 Z M73.5487051,101.540592 C73.5487051,104.050097 71.5013916,106.09741 68.9918864,106.09741 L49.4626633,106.09741 C46.9499033,106.09741 44.9025897,104.050097 44.9025897,101.540592 L44.9025897,82.0113685 C44.9025897,79.4986084 46.9499033,77.4545497 49.4626633,77.4545497 L68.9918864,77.4545497 C71.5013916,77.4545497 73.5487051,79.4986084 73.5487051,82.0113685 L73.5487051,101.540592 Z M101.540592,41 L49.4626633,41 C44.795179,41 41,44.795179 41,49.4626633 L41,101.540592 C41,106.204821 44.795179,110 49.4626633,110 L101.540592,110 C106.204821,110 110,106.204821 110,101.540592 L110,49.4626633 C110,44.795179 106.204821,41 101.540592,41 Z" id="Screen-minimize" fill="#FFFFFF"></path>
        </g>
    </g>
</svg>