<?xml version="1.0" encoding="UTF-8"?>
<svg width="150px" height="150px" viewBox="0 0 150 150" version="1.1" xmlns="http://www.w3.org/2000/svg" xmlns:xlink="http://www.w3.org/1999/xlink">
    <!-- Generator: Sketch 49 (51002) - http://www.bohemiancoding.com/sketch -->
    <title>Benefit3</title>
    <desc>Created with Sketch.</desc>
    <defs></defs>
    <g id="Landing-Page-2" stroke="none" stroke-width="1" fill="none" fill-rule="evenodd">
        <g id="Benefit3">
            <circle id="Oval-Copy-2" fill="#FF6A30" cx="75.5" cy="75.5" r="69.5"></circle>
            <path d="M74.1711129,61.897918 C74.8599087,62.5867139 74.8599087,63.7052712 74.1711129,64.3970107 L61.3548004,77.2133231 C61.0221767,77.5430032 60.5747538,77.7284482 60.1067258,77.7284482 C59.6386979,77.7284482 59.1853878,77.5430032 58.8586513,77.2133231 L53.998814,72.3534858 C53.3100181,71.6617463 53.3100181,70.5461326 53.998814,69.8543931 C54.6905534,69.1655973 55.8120543,69.1685409 56.494963,69.8543931 L60.1067258,73.466156 L71.6720202,61.897918 C72.3637597,61.2091222 73.482317,61.2091222 74.1711129,61.897918 Z M105.743866,90.5329864 L104.357444,90.5329864 C103.545018,86.8800136 100.280596,84.1395481 96.3891943,84.1395481 C92.4977921,84.1395481 89.2304272,86.8800136 88.4238885,90.5329864 L87.0374661,90.5329864 L87.0374661,75.2028635 L105.743866,75.2028635 L105.743866,90.5329864 Z M96.3891943,96.9234812 C93.840061,96.9234812 91.7677863,94.8512066 91.7677863,92.2991296 L91.7648427,92.2961861 C91.7677863,89.7441091 93.8430045,87.6718345 96.3891943,87.6718345 C98.9412712,87.6718345 101.016489,89.7470527 101.016489,92.2991296 C101.016489,94.8512066 98.9412712,96.9234812 96.3891943,96.9234812 Z M87.0374661,63.8524498 L98.7970362,63.8524498 C99.3680892,63.8524498 99.9067629,64.1585813 100.20112,64.6472143 L104.401597,71.6588028 L87.0374661,71.6588028 L87.0374661,63.8524498 Z M83.5051797,62.0863066 L83.5051797,73.4278895 L83.5051797,73.4367203 L83.5051797,90.5329864 L64.1629681,90.5329864 C63.3534858,86.87707 60.0978951,84.1277738 56.2035494,84.1277738 C52.3033165,84.1277738 49.0477258,86.87707 48.2382435,90.5329864 L44.5322864,90.5329864 L44.5322864,58.5657945 C44.5322864,55.7900061 46.7900061,53.5322864 49.5687381,53.5322864 L78.468728,53.5322864 C81.2445164,53.5322864 83.5051797,55.7900061 83.5051797,58.5657945 L83.5051797,62.0863066 Z M60.827901,92.3197346 C60.8131831,94.8570937 58.743852,96.9175941 56.2035494,96.9175941 C53.6485289,96.9175941 51.5703671,94.8423758 51.5703671,92.2902989 C51.5703671,89.738222 53.6485289,87.6600602 56.2035494,87.6600602 C58.7497392,87.6600602 60.8220138,89.7293913 60.8308446,92.2726375 C60.8308446,92.2814682 60.8249574,92.2902989 60.8249574,92.2991296 C60.8249574,92.3079604 60.827901,92.3138475 60.827901,92.3197346 Z M109.234943,73.2159524 C109.20845,73.0099023 109.161353,72.8156266 109.070102,72.6390122 C109.055385,72.6036894 109.061272,72.5624794 109.040667,72.5271565 L103.230056,62.8310303 C102.30283,61.2827115 100.601446,60.3201634 98.7970362,60.3201634 L87.0374661,60.3201634 L87.0374661,58.5657945 C87.0374661,53.844305 83.193161,50 78.468728,50 L49.5687381,50 C44.8413615,50 41,53.844305 41,58.5657945 L41,92.2991296 C41,93.2763955 41.7888773,94.0652728 42.7661432,94.0652728 L48.2441307,94.0652728 C49.0624437,97.7123585 52.3121472,100.452824 56.2035494,100.452824 C60.092008,100.452824 63.3417115,97.7123585 64.1570809,94.0652728 L85.2713229,94.0652728 L88.4386063,94.0652728 C89.2480886,97.7153021 92.5007357,100.458711 96.3891943,100.458711 C100.280596,100.458711 103.536187,97.7153021 104.345669,94.0652728 L107.510009,94.0652728 C108.484332,94.0652728 109.279096,93.2763955 109.279096,92.2991296 L109.279096,73.4690996 C109.279096,73.3807924 109.246717,73.3042595 109.234943,73.2159524 Z" id="Free-delivery-shipment" fill="#FFFFFF"></path>
        </g>
    </g>
</svg>