<?xml version="1.0" encoding="UTF-8"?>
<svg width="150px" height="150px" viewBox="0 0 150 150" version="1.1" xmlns="http://www.w3.org/2000/svg" xmlns:xlink="http://www.w3.org/1999/xlink">
    <!-- Generator: Sketch 49 (51002) - http://www.bohemiancoding.com/sketch -->
    <title>Benefit1</title>
    <desc>Created with Sketch.</desc>
    <defs></defs>
    <g id="Landing-Page-2" stroke="none" stroke-width="1" fill="none" fill-rule="evenodd">
        <g id="Benefit1">
            <circle id="Oval" fill="#5DC3F3" cx="75.5" cy="75.5" r="69.5"></circle>
            <path d="M103.182553,73.9396672 C103.147394,73.9524522 103.118628,73.9748259 103.086665,73.9940034 C102.146969,74.5885053 101.044264,74.9432887 99.8520637,74.9432887 C96.5023973,74.9432887 93.7759989,72.2200866 93.7759989,68.8736163 C93.7759989,67.8124625 92.9194048,66.9526721 91.8614472,66.9526721 C90.8002933,66.9526721 89.9436992,67.8124625 89.9436992,68.8736163 C89.9436992,72.2200866 87.2173009,74.9432887 83.8708307,74.9432887 C80.5211642,74.9432887 77.7947658,72.2200866 77.7947658,68.8736163 C77.7947658,67.8124625 76.9381717,66.9526721 75.8802141,66.9526721 C74.8190602,66.9526721 73.9624662,67.8124625 73.9624662,68.8736163 C73.9624662,72.2200866 71.2360678,74.9432887 67.8895976,74.9432887 C64.5399311,74.9432887 61.8135328,72.2200866 61.8135328,68.8736163 C61.8135328,67.8124625 60.9569387,66.9526721 59.898981,66.9526721 C58.8378272,66.9526721 57.9812331,67.8124625 57.9812331,68.8736163 C57.9812331,72.2200866 55.2548347,74.9432887 51.9083645,74.9432887 C50.760912,74.9432887 49.6965618,74.6076828 48.7792391,74.0643209 C48.6929404,74.0163772 48.6162305,73.9652372 48.5235393,73.9300785 C46.8998461,72.8657284 45.822711,71.0886153 45.8067297,69.1900448 L48.6961367,51.9207243 C49.1851624,48.9737849 51.7101972,46.8386922 54.701884,46.8386922 L97.0553479,46.8386922 C100.047035,46.8386922 102.57207,48.9737849 103.061095,51.9239205 L105.924932,68.8736163 C105.924932,70.9895316 104.831816,72.8529434 103.182553,73.9396672 Z M101.98396,98.1320579 C101.98396,101.488117 99.2543656,104.220908 95.8951104,104.220908 L85.8013636,104.220908 L85.8013636,90.1222638 C85.8013636,89.0643062 84.9415733,88.2045159 83.8836156,88.2045159 L67.8736163,88.2045159 C66.8156587,88.2045159 65.9558684,89.0643062 65.9558684,90.1222638 L65.9558684,104.220908 L55.8621216,104.220908 C52.5028664,104.220908 49.7732718,101.488117 49.7732718,98.1320579 L49.7732718,78.5358699 C50.4604648,78.6860935 51.1732278,78.7819809 51.9083645,78.7819809 C55.1845173,78.7819809 58.0931017,77.1838575 59.898981,74.7259439 C61.7016641,77.1838575 64.6102486,78.7819809 67.8895976,78.7819809 C71.1657504,78.7819809 74.0743348,77.1838575 75.8802141,74.7259439 C77.6828972,77.1838575 80.5914816,78.7819809 83.8708307,78.7819809 C87.1469834,78.7819809 90.0555679,77.1838575 91.8614472,74.7259439 C93.6641303,77.1838575 96.5727147,78.7819809 99.8520637,78.7819809 C100.5872,78.7819809 101.296767,78.6860935 101.98396,78.5326736 L101.98396,98.1320579 Z M69.7881681,104.220908 L81.9690639,104.220908 L81.9690639,92.0432081 L69.7881681,92.0432081 L69.7881681,104.220908 Z M106.845451,51.2910637 C106.04639,46.4871051 101.929624,43 97.0553479,43 L54.701884,43 C49.827608,43 45.7108423,46.4871051 44.9117807,51.2910637 L42,68.8736163 C42,72.0858442 43.5629646,74.9177187 45.9377758,76.7299905 L45.9377758,98.1320579 C45.9377758,103.604032 50.3901474,108.056404 55.8621216,108.056404 L95.8951104,108.056404 C101.367085,108.056404 105.819456,103.604032 105.819456,98.1320579 L105.819456,76.7044206 C108.191071,74.8601863 109.747643,71.9547981 109.731662,68.5539917 L106.845451,51.2910637 Z" id="Shop" fill="#FFFFFF"></path>
        </g>
    </g>
</svg>